<?xml version="1.0" encoding="UTF-8" standalone="no"?>
<svg width="267px" height="151px" viewBox="0 0 267 151" version="1.1" xmlns="http://www.w3.org/2000/svg" xmlns:xlink="http://www.w3.org/1999/xlink" xmlns:sketch="http://www.bohemiancoding.com/sketch/ns">
    <title>logo</title>
    <description>Created with Sketch (http://www.bohemiancoding.com/sketch)</description>
    <defs>
        <path id="path-1" d="M112.85502,12.8269146 C40.49412,35.8000796 -9.3916,82.3595741 1.4363,116.821452 L1.4363,116.821452 C8.22878,138.438304 37.28391,150.161415 75.86738,150.228006 L75.86738,150.228006 L76.53518,150.228006 C99.30557,150.188051 125.35666,146.107923 152.06813,137.628031 L152.06813,137.628031 C224.42956,114.658595 274.31157,68.094839 263.48261,33.6324279 L263.48261,33.6324279 C256.67052,11.9532482 227.46434,0.226407455 188.71339,0.228005626 L188.71339,0.228005626 C165.86615,0.229071072 139.69475,4.30760161 112.85502,12.8269146"></path>
        <path id="path-3" d="M112.85502,12.8269146 C40.49412,35.8000796 -9.3916,82.3595741 1.4363,116.821452 L1.4363,116.821452 C8.22878,138.438304 37.28391,150.161415 75.86738,150.228006 L75.86738,150.228006 L76.53518,150.228006 C99.30557,150.188051 125.35666,146.107923 152.06813,137.628031 L152.06813,137.628031 C224.42956,114.658595 274.31157,68.094839 263.48261,33.6324279 L263.48261,33.6324279 C256.67052,11.9532482 227.46434,0.226407455 188.71339,0.228005626 L188.71339,0.228005626 C165.86615,0.229071072 139.69475,4.30760161 112.85502,12.8269146"></path>
        <path id="path-5" d="M112.85502,12.8269146 C40.49412,35.8000796 -9.3916,82.3595741 1.4363,116.821452 L1.4363,116.821452 C8.22878,138.438304 37.28391,150.161415 75.86738,150.228006 L75.86738,150.228006 L76.53518,150.228006 C99.30557,150.188051 125.35666,146.107923 152.06813,137.628031 L152.06813,137.628031 C224.42956,114.658595 274.31157,68.094839 263.48261,33.6324279 L263.48261,33.6324279 C256.67052,11.9532482 227.46434,0.226407455 188.71339,0.228005626 L188.71339,0.228005626 C165.86615,0.229071072 139.69475,4.30760161 112.85502,12.8269146 L112.85502,12.8269146 Z"></path>
    </defs>
    <g id="Page-1" stroke="none" stroke-width="1" fill="none" fill-rule="evenodd" sketch:type="MSPage">
        <g id="960---Desktop" sketch:type="MSArtboardGroup" transform="translate(-260.000000, -287.000000)">
            <g id="Mediachrome-logo" sketch:type="MSLayerGroup" transform="translate(261.000000, 287.000000)">
                <g id="Group-3">
                    <mask id="mask-2" sketch:name="Clip 2" fill="white">
                        <use xlink:href="#path-1"></use>
                    </mask>
                    <g id="Clip-2"></g>
                    <path d="M263.482716,33.6325878 C274.311676,68.0944661 224.429136,114.658222 152.067706,137.627658 C79.707336,160.600291 12.264836,151.284023 1.435876,116.821612 C-9.391494,82.3597339 40.494226,35.8002394 112.855126,12.8270744 C185.216556,-10.1418287 252.653756,-0.829290554 263.482716,33.6325878" id="Fill-1" fill="#564F7E" sketch:type="MSShapeGroup" mask="url(#mask-2)"></path>
                </g>
                <g id="Group-6">
                    <mask id="mask-4" sketch:name="Clip 5" fill="white">
                        <use xlink:href="#path-3"></use>
                    </mask>
                    <g id="Clip-5"></g>
                    <path d="M249.114734,79.3609805 C239.394534,79.9991832 228.591544,80.7023781 217.934834,81.3847968 C185.752704,83.4421746 214.484534,41.3511642 203.394814,31.5410623 C192.308274,21.7282968 144.853664,88.5131689 124.002404,89.8503047 C103.155914,91.1831787 133.644164,51.1021337 124.870014,34.739001 C116.100104,18.3758683 73.191834,64.2731877 25.131434,90.9855383 C21.358364,93.0786087 11.822604,94.3917719 1.845884,95.2057733 C0.981984,98.0116276 0.380434,100.791911 0.118084,103.523184 C8.806904,102.695865 16.684824,101.458881 20.028064,99.5996761 C68.088464,72.8905218 110.993024,26.9937352 119.766644,43.3568679 C128.537084,59.7200006 98.049364,99.8005128 118.899564,98.463377 C139.746584,97.1315685 187.204904,30.3461637 198.291444,40.1583964 C209.381164,49.969031 180.649334,92.0632378 212.831464,90.0021309 C222.334364,89.3937607 231.954924,88.7683434 240.822884,88.1887404 C243.835404,85.2720796 246.622144,82.3266518 249.114734,79.3609805" id="Fill-4" fill="#FFFFFF" sketch:type="MSShapeGroup" mask="url(#mask-4)"></path>
                </g>
                <g id="Group-9">
                    <mask id="mask-6" sketch:name="Clip 8" fill="white">
                        <use xlink:href="#path-5"></use>
                    </mask>
                    <g id="Clip-8"></g>
                    <path d="M249.114734,79.3609805 C239.394534,79.9991832 228.591544,80.7023781 217.934834,81.3847968 C185.752704,83.4421746 214.484534,41.3511642 203.394814,31.5410623 C192.308274,21.7282968 144.853664,88.5131689 124.002404,89.8503047 C103.155914,91.1831787 133.644164,51.1021337 124.870014,34.739001 C116.100104,18.3758683 73.191834,64.2731877 25.131434,90.9855383 C21.358364,93.0786087 11.822604,94.3917719 1.845884,95.2057733 C0.981984,98.0116276 0.380434,100.791911 0.118084,103.523184 C8.806904,102.695865 16.684824,101.458881 20.028064,99.5996761 C68.088464,72.8905218 110.993024,26.9937352 119.766644,43.3568679 C128.537084,59.7200006 98.049364,99.8005128 118.899564,98.463377 C139.746584,97.1315685 187.204904,30.3461637 198.291444,40.1583964 C209.381164,49.969031 180.649334,92.0632378 212.831464,90.0021309 C222.334364,89.3937607 231.954924,88.7683434 240.822884,88.1887404 C243.835404,85.2720796 246.622144,82.3266518 249.114734,79.3609805 L249.114734,79.3609805 Z" id="Stroke-7" stroke="#FFFFFF" stroke-width="4" stroke-linecap="round" sketch:type="MSShapeGroup" mask="url(#mask-6)"></path>
                </g>
            </g>
        </g>
    </g>
</svg>